<?xml version="1.0" encoding="UTF-8" standalone="no"?>
<!DOCTYPE svg PUBLIC "-//W3C//DTD SVG 1.1//EN"
 "http://www.w3.org/Graphics/SVG/1.1/DTD/svg11.dtd">
<!-- Generated by graphviz version 10.0.1 (20240210.2158)
 -->
<!-- Title: Precedence Graph Pages: 1 -->
<svg width="782pt" height="188pt"
 viewBox="0.00 0.00 781.96 188.00" xmlns="http://www.w3.org/2000/svg" xmlns:xlink="http://www.w3.org/1999/xlink">
<g id="graph0" class="graph" transform="scale(1 1) rotate(0) translate(4 184)">
<title>Precedence Graph</title>
<polygon fill="white" stroke="none" points="-4,4 -4,-184 777.96,-184 777.96,4 -4,4"/>
<!-- lfvo -->
<g id="node1" class="node">
<title>lfvo</title>
<ellipse fill="none" stroke="black" cx="27" cy="-162" rx="27" ry="18"/>
<text text-anchor="middle" x="27" y="-156.57" font-family="Times New Roman,serif" font-size="14.00">lfvo</text>
</g>
<!-- audi, a3 -->
<g id="node8" class="node">
<title>audi, a3</title>
<ellipse fill="none" stroke="black" cx="66" cy="-90" rx="39.59" ry="18"/>
<text text-anchor="middle" x="66" y="-84.58" font-family="Times New Roman,serif" font-size="14.00">audi, a3</text>
</g>
<!-- lfvo&#45;&gt;audi, a3 -->
<g id="edge1" class="edge">
<title>lfvo&#45;&gt;audi, a3</title>
<path fill="none" stroke="black" d="M30.72,-143.7C34.41,-135.58 39.69,-125.74 45.11,-116.76"/>
<polygon fill="black" stroke="black" points="48,-118.74 50.4,-108.42 42.09,-114.99 48,-118.74"/>
</g>
<!-- lfvo&#45;&gt;audi, a3 -->
<g id="edge2" class="edge">
<title>lfvo&#45;&gt;audi, a3</title>
<path fill="none" stroke="black" d="M40.91,-146.15C46.4,-138.11 52.41,-127.9 57.31,-118.47"/>
<polygon fill="black" stroke="black" points="60.37,-120.17 61.62,-109.65 54.08,-117.1 60.37,-120.17"/>
</g>
<!-- luxury -->
<g id="node12" class="node">
<title>luxury</title>
<ellipse fill="none" stroke="black" cx="100" cy="-18" rx="33.6" ry="18"/>
<text text-anchor="middle" x="100" y="-12.57" font-family="Times New Roman,serif" font-size="14.00">luxury</text>
</g>
<!-- lfvo&#45;&gt;luxury -->
<g id="edge3" class="edge">
<title>lfvo&#45;&gt;luxury</title>
<path fill="none" stroke="black" d="M19.69,-144.47C12.58,-125.71 4.52,-94.77 17,-72 26.66,-54.37 44.96,-41.75 61.92,-33.26"/>
<polygon fill="black" stroke="black" points="63.24,-36.51 70.85,-29.14 60.3,-30.16 63.24,-36.51"/>
</g>
<!-- asfj21 -->
<g id="node2" class="node">
<title>asfj21</title>
<ellipse fill="none" stroke="black" cx="105" cy="-162" rx="32.6" ry="18"/>
<text text-anchor="middle" x="105" y="-156.57" font-family="Times New Roman,serif" font-size="14.00">asfj21</text>
</g>
<!-- asfj21&#45;&gt;audi, a3 -->
<g id="edge4" class="edge">
<title>asfj21&#45;&gt;audi, a3</title>
<path fill="none" stroke="black" d="M90.62,-145.46C85.23,-137.47 79.37,-127.5 74.6,-118.28"/>
<polygon fill="black" stroke="black" points="77.76,-116.78 70.23,-109.32 71.47,-119.85 77.76,-116.78"/>
</g>
<!-- asfj21&#45;&gt;audi, a3 -->
<g id="edge5" class="edge">
<title>asfj21&#45;&gt;audi, a3</title>
<path fill="none" stroke="black" d="M101.28,-143.7C97.59,-135.58 92.31,-125.74 86.89,-116.76"/>
<polygon fill="black" stroke="black" points="89.91,-114.99 81.6,-108.42 84,-118.74 89.91,-114.99"/>
</g>
<!-- asfj21&#45;&gt;luxury -->
<g id="edge6" class="edge">
<title>asfj21&#45;&gt;luxury</title>
<path fill="none" stroke="black" d="M109.46,-143.91C113.54,-125.96 118.46,-96.95 115,-72 113.85,-63.73 111.74,-54.93 109.46,-46.93"/>
<polygon fill="black" stroke="black" points="112.81,-45.91 106.53,-37.38 106.11,-47.96 112.81,-45.91"/>
</g>
<!-- afi82 -->
<g id="node3" class="node">
<title>afi82</title>
<ellipse fill="none" stroke="black" cx="356" cy="-162" rx="28.61" ry="18"/>
<text text-anchor="middle" x="356" y="-156.57" font-family="Times New Roman,serif" font-size="14.00">afi82</text>
</g>
<!-- mini, cooper -->
<g id="node10" class="node">
<title>mini, cooper</title>
<ellipse fill="none" stroke="black" cx="438" cy="-90" rx="57.55" ry="18"/>
<text text-anchor="middle" x="438" y="-84.58" font-family="Times New Roman,serif" font-size="14.00">mini, cooper</text>
</g>
<!-- afi82&#45;&gt;mini, cooper -->
<g id="edge7" class="edge">
<title>afi82&#45;&gt;mini, cooper</title>
<path fill="none" stroke="black" d="M368.48,-145.46C378.33,-136.11 392.27,-124.02 405.15,-113.62"/>
<polygon fill="black" stroke="black" points="406.98,-116.63 412.64,-107.67 402.63,-111.15 406.98,-116.63"/>
</g>
<!-- afi82&#45;&gt;mini, cooper -->
<g id="edge8" class="edge">
<title>afi82&#45;&gt;mini, cooper</title>
<path fill="none" stroke="black" d="M375.55,-148.81C387.79,-139.58 403.39,-126.6 416.02,-115.28"/>
<polygon fill="black" stroke="black" points="418.09,-118.13 423.1,-108.79 413.36,-112.97 418.09,-118.13"/>
</g>
<!-- compact -->
<g id="node13" class="node">
<title>compact</title>
<ellipse fill="none" stroke="black" cx="562" cy="-18" rx="43.08" ry="18"/>
<text text-anchor="middle" x="562" y="-12.57" font-family="Times New Roman,serif" font-size="14.00">compact</text>
</g>
<!-- afi82&#45;&gt;compact -->
<g id="edge9" class="edge">
<title>afi82&#45;&gt;compact</title>
<path fill="none" stroke="black" d="M353.85,-143.61C352.42,-123.77 353.38,-91.55 371,-72 405.26,-33.99 464.17,-22.25 507.53,-19.09"/>
<polygon fill="black" stroke="black" points="507.46,-22.6 517.24,-18.53 507.06,-15.62 507.46,-22.6"/>
</g>
<!-- dfsndf -->
<g id="node4" class="node">
<title>dfsndf</title>
<ellipse fill="none" stroke="black" cx="438" cy="-162" rx="35.1" ry="18"/>
<text text-anchor="middle" x="438" y="-156.57" font-family="Times New Roman,serif" font-size="14.00">dfsndf</text>
</g>
<!-- dfsndf&#45;&gt;mini, cooper -->
<g id="edge10" class="edge">
<title>dfsndf&#45;&gt;mini, cooper</title>
<path fill="none" stroke="black" d="M432.12,-144.05C431.34,-136.68 431.08,-127.84 431.35,-119.51"/>
<polygon fill="black" stroke="black" points="434.83,-119.99 431.99,-109.79 427.84,-119.54 434.83,-119.99"/>
</g>
<!-- dfsndf&#45;&gt;mini, cooper -->
<g id="edge11" class="edge">
<title>dfsndf&#45;&gt;mini, cooper</title>
<path fill="none" stroke="black" d="M443.88,-144.05C444.66,-136.68 444.92,-127.84 444.65,-119.51"/>
<polygon fill="black" stroke="black" points="448.16,-119.54 444.01,-109.79 441.17,-119.99 448.16,-119.54"/>
</g>
<!-- dfsndf&#45;&gt;compact -->
<g id="edge12" class="edge">
<title>dfsndf&#45;&gt;compact</title>
<path fill="none" stroke="black" d="M458.83,-147.27C472.87,-137.39 491.27,-123.18 505,-108 522.17,-89.03 537.54,-64.33 547.98,-45.76"/>
<polygon fill="black" stroke="black" points="550.93,-47.67 552.67,-37.22 544.79,-44.3 550.93,-47.67"/>
</g>
<!-- djf73 -->
<g id="node5" class="node">
<title>djf73</title>
<ellipse fill="none" stroke="black" cx="521" cy="-162" rx="29.61" ry="18"/>
<text text-anchor="middle" x="521" y="-156.57" font-family="Times New Roman,serif" font-size="14.00">djf73</text>
</g>
<!-- djf73&#45;&gt;mini, cooper -->
<g id="edge13" class="edge">
<title>djf73&#45;&gt;mini, cooper</title>
<path fill="none" stroke="black" d="M500.85,-148.49C488.55,-139.28 472.99,-126.49 460.35,-115.3"/>
<polygon fill="black" stroke="black" points="463.03,-113 453.26,-108.89 458.34,-118.2 463.03,-113"/>
</g>
<!-- djf73&#45;&gt;mini, cooper -->
<g id="edge14" class="edge">
<title>djf73&#45;&gt;mini, cooper</title>
<path fill="none" stroke="black" d="M508.3,-145.46C498.31,-136.11 484.2,-124.02 471.18,-113.62"/>
<polygon fill="black" stroke="black" points="473.62,-111.08 463.59,-107.67 469.3,-116.59 473.62,-111.08"/>
</g>
<!-- djf73&#45;&gt;compact -->
<g id="edge15" class="edge">
<title>djf73&#45;&gt;compact</title>
<path fill="none" stroke="black" d="M526.72,-143.88C530.12,-133.53 534.45,-120.05 538,-108 543.99,-87.7 550.2,-64.62 554.8,-47.05"/>
<polygon fill="black" stroke="black" points="558.13,-48.15 557.26,-37.59 551.35,-46.39 558.13,-48.15"/>
</g>
<!-- kdf83 -->
<g id="node6" class="node">
<title>kdf83</title>
<ellipse fill="none" stroke="black" cx="649" cy="-162" rx="32.1" ry="18"/>
<text text-anchor="middle" x="649" y="-156.57" font-family="Times New Roman,serif" font-size="14.00">kdf83</text>
</g>
<!-- renault, twingo -->
<g id="node11" class="node">
<title>renault, twingo</title>
<ellipse fill="none" stroke="black" cx="693" cy="-90" rx="65.04" ry="18"/>
<text text-anchor="middle" x="693" y="-84.58" font-family="Times New Roman,serif" font-size="14.00">renault, twingo</text>
</g>
<!-- kdf83&#45;&gt;renault, twingo -->
<g id="edge16" class="edge">
<title>kdf83&#45;&gt;renault, twingo</title>
<path fill="none" stroke="black" d="M653.77,-144.05C658,-135.97 663.96,-126.12 670.03,-117.11"/>
<polygon fill="black" stroke="black" points="672.83,-119.22 675.72,-109.03 667.1,-115.2 672.83,-119.22"/>
</g>
<!-- kdf83&#45;&gt;renault, twingo -->
<g id="edge17" class="edge">
<title>kdf83&#45;&gt;renault, twingo</title>
<path fill="none" stroke="black" d="M664.23,-145.81C670.34,-137.66 677.11,-127.37 682.67,-117.92"/>
<polygon fill="black" stroke="black" points="685.58,-119.89 687.39,-109.45 679.46,-116.47 685.58,-119.89"/>
</g>
<!-- kdf83&#45;&gt;compact -->
<g id="edge18" class="edge">
<title>kdf83&#45;&gt;compact</title>
<path fill="none" stroke="black" d="M638.85,-144.43C623.93,-120.09 595.94,-74.4 578.18,-45.4"/>
<polygon fill="black" stroke="black" points="581.35,-43.89 573.15,-37.19 575.39,-47.55 581.35,-43.89"/>
</g>
<!-- 823rfw -->
<g id="node7" class="node">
<title>823rfw</title>
<ellipse fill="none" stroke="black" cx="736" cy="-162" rx="36.59" ry="18"/>
<text text-anchor="middle" x="736" y="-156.57" font-family="Times New Roman,serif" font-size="14.00">823rfw</text>
</g>
<!-- 823rfw&#45;&gt;renault, twingo -->
<g id="edge19" class="edge">
<title>823rfw&#45;&gt;renault, twingo</title>
<path fill="none" stroke="black" d="M720.74,-145.46C714.82,-137.39 708.32,-127.28 702.98,-117.98"/>
<polygon fill="black" stroke="black" points="706.11,-116.41 698.26,-109.29 699.96,-119.75 706.11,-116.41"/>
</g>
<!-- 823rfw&#45;&gt;renault, twingo -->
<g id="edge20" class="edge">
<title>823rfw&#45;&gt;renault, twingo</title>
<path fill="none" stroke="black" d="M731.29,-143.7C727.15,-135.61 721.34,-125.81 715.43,-116.87"/>
<polygon fill="black" stroke="black" points="718.47,-115.11 709.91,-108.87 712.71,-119.09 718.47,-115.11"/>
</g>
<!-- 823rfw&#45;&gt;compact -->
<g id="edge21" class="edge">
<title>823rfw&#45;&gt;compact</title>
<path fill="none" stroke="black" d="M749.91,-145.06C764.77,-126.02 784.03,-93.99 767,-72 748.46,-48.05 668.85,-32.98 614.47,-25.27"/>
<polygon fill="black" stroke="black" points="615.17,-21.83 604.78,-23.94 614.22,-28.77 615.17,-21.83"/>
</g>
<!-- audi, a3&#45;&gt;luxury -->
<g id="edge22" class="edge">
<title>audi, a3&#45;&gt;luxury</title>
<path fill="none" stroke="black" d="M74.23,-72.05C78.03,-64.23 82.64,-54.75 86.9,-45.98"/>
<polygon fill="black" stroke="black" points="89.96,-47.67 91.18,-37.15 83.67,-44.62 89.96,-47.67"/>
</g>
<!-- ford, afj2, mustang -->
<g id="node9" class="node">
<title>ford, afj2, mustang</title>
<ellipse fill="none" stroke="black" cx="243" cy="-90" rx="81" ry="18"/>
<text text-anchor="middle" x="243" y="-84.58" font-family="Times New Roman,serif" font-size="14.00">ford, afj2, mustang</text>
</g>
<!-- ford, afj2, mustang&#45;&gt;luxury -->
<g id="edge23" class="edge">
<title>ford, afj2, mustang&#45;&gt;luxury</title>
<path fill="none" stroke="black" d="M210.55,-73.12C187.83,-61.99 157.51,-47.15 134.37,-35.83"/>
<polygon fill="black" stroke="black" points="136.18,-32.81 125.66,-31.56 133.1,-39.1 136.18,-32.81"/>
</g>
<!-- mini, cooper&#45;&gt;compact -->
<g id="edge24" class="edge">
<title>mini, cooper&#45;&gt;compact</title>
<path fill="none" stroke="black" d="M464.91,-73.81C483.22,-63.47 507.64,-49.69 527.4,-38.53"/>
<polygon fill="black" stroke="black" points="528.95,-41.68 535.94,-33.71 525.51,-35.58 528.95,-41.68"/>
</g>
<!-- renault, twingo&#45;&gt;compact -->
<g id="edge25" class="edge">
<title>renault, twingo&#45;&gt;compact</title>
<path fill="none" stroke="black" d="M663.93,-73.46C644.45,-63.06 618.68,-49.29 597.92,-38.2"/>
<polygon fill="black" stroke="black" points="599.69,-35.17 589.22,-33.55 596.39,-41.35 599.69,-35.17"/>
</g>
</g>
</svg>
